<svg width="151" height="26" viewBox="0 0 151 26" fill="none" xmlns="http://www.w3.org/2000/svg">
<mask id="mask0_536_571" style="mask-type:luminance" maskUnits="userSpaceOnUse" x="34" y="8" width="10" height="10">
<path d="M34.6098 8.3017V17.1085H35.9256V9.61746H38.8589C40.5612 9.61746 41.9448 11.001 41.9448 12.7034C41.9448 14.4057 40.5612 15.7893 38.8589 15.7893H37.4719L36.4919 17.1051H38.8555C41.2835 17.1051 43.2606 15.128 43.2606 12.7C43.2606 10.2719 41.2835 8.29492 38.8555 8.29492H34.603L34.6098 8.3017Z" fill="white"/>
</mask>
<g mask="url(#mask0_536_571)">
<path d="M38.5349 3.99477L30.2266 13.1191L39.3434 21.4207L47.6518 12.2963L38.5349 3.99477Z" fill="#242326"/>
</g>
<mask id="mask1_536_571" style="mask-type:luminance" maskUnits="userSpaceOnUse" x="46" y="8" width="10" height="10">
<path d="M46.8381 15.7928V17.1085H55.2549L54.2749 15.7928H46.8381ZM46.8381 13.3647H54.8581V12.0489H46.8381V13.3647ZM46.8381 8.30176V9.62091H54.2749L55.2549 8.30176H46.8381Z" fill="white"/>
</mask>
<g mask="url(#mask1_536_571)">
<path d="M50.6558 4.11708L42.457 13.1211L51.4435 21.3039L59.6423 12.2999L50.6558 4.11708Z" fill="#242326"/>
</g>
<mask id="mask2_536_571" style="mask-type:luminance" maskUnits="userSpaceOnUse" x="58" y="8" width="10" height="10">
<path d="M58.8394 15.7928V17.1085H67.2561L66.2761 15.7928H58.8394ZM58.8394 13.3647H66.8594V12.0489H58.8394V13.3647ZM58.8394 8.30176V9.62091H66.2761L67.2561 8.30176H58.8394Z" fill="white"/>
</mask>
<g mask="url(#mask2_536_571)">
<path d="M62.656 4.11806L54.4573 13.1221L63.4437 21.3049L71.6425 12.3008L62.656 4.11806Z" fill="#242326"/>
</g>
<path d="M126.072 15.7928V17.1085H134.489L133.509 15.7928H126.072ZM126.072 13.3647H134.092V12.0489H126.072V13.3647ZM126.072 8.30176V9.62091H133.509L134.489 8.30176H126.072Z" fill="#51BA6B"/>
<mask id="mask3_536_571" style="mask-type:luminance" maskUnits="userSpaceOnUse" x="126" y="8" width="9" height="10">
<path d="M126.072 15.7928V17.1085H134.489L133.509 15.7928H126.072ZM126.072 13.3647H134.092V12.0489H126.072V13.3647ZM126.072 8.30176V9.62091H133.509L134.489 8.30176H126.072Z" fill="white"/>
</mask>
<g mask="url(#mask3_536_571)">
<path d="M129.893 4.12001L121.694 13.124L130.68 21.3068L138.879 12.3028L129.893 4.12001Z" fill="#51BA6B"/>
</g>
<mask id="mask4_536_571" style="mask-type:luminance" maskUnits="userSpaceOnUse" x="70" y="8" width="10" height="10">
<path d="M70.8406 8.30176V17.1085H72.1597V9.61751H76.4834C77.3481 9.61751 78.0535 10.3229 78.0535 11.1876C78.0535 12.0523 77.3481 12.7577 76.4834 12.7577H73.7976L72.8176 14.0735H76.4868C78.0806 14.0735 79.376 12.778 79.376 11.1876C79.376 9.59717 78.0806 8.30176 76.4868 8.30176H70.844H70.8406Z" fill="white"/>
</mask>
<g mask="url(#mask4_536_571)">
<path d="M74.7103 4.05648L66.459 13.1182L75.5056 21.3558L83.7569 12.2941L74.7103 4.05648Z" fill="#242326"/>
</g>
<mask id="mask5_536_571" style="mask-type:luminance" maskUnits="userSpaceOnUse" x="83" y="8" width="9" height="10">
<path d="M84.6019 9.617H88.9256C89.7903 9.617 90.4956 10.3224 90.4956 11.1871C90.4956 12.0518 89.7903 12.7572 88.9256 12.7572H85.5039L84.6019 13.9712V9.617ZM83.2861 8.29785V17.1046H84.6019V14.0695H88.9256C90.516 14.0695 91.8114 12.7741 91.8114 11.1837C91.8114 9.59326 90.516 8.29785 88.9256 8.29785H83.2827H83.2861Z" fill="white"/>
</mask>
<g mask="url(#mask5_536_571)">
<path d="M87.1531 4.05648L78.9019 13.1182L87.9485 21.3558L96.1998 12.2941L87.1531 4.05648Z" fill="#51BA6B"/>
</g>
<mask id="mask6_536_571" style="mask-type:luminance" maskUnits="userSpaceOnUse" x="94" y="8" width="11" height="10">
<path d="M96.1622 12.7029C96.1622 11.0006 97.5458 9.617 99.2481 9.617H99.5974C101.3 9.617 102.683 11.0006 102.683 12.7029C102.683 14.4053 101.3 15.7888 99.5974 15.7888H99.2481C97.5458 15.7888 96.1622 14.4053 96.1622 12.7029ZM99.2481 8.29785C96.8201 8.29785 94.843 10.2749 94.843 12.7029C94.843 15.131 96.8201 17.108 99.2481 17.108H99.5974C102.025 17.108 104.002 15.131 104.002 12.7029C104.002 10.2749 102.025 8.29785 99.5974 8.29785H99.2481Z" fill="white"/>
</mask>
<g mask="url(#mask6_536_571)">
<path d="M99.0027 3.74849L90.4683 13.1211L99.8584 21.6715L108.393 12.2989L99.0027 3.74849Z" fill="#51BA6B"/>
</g>
<mask id="mask7_536_571" style="mask-type:luminance" maskUnits="userSpaceOnUse" x="106" y="8" width="17" height="10">
<path d="M121.436 8.30176L118.048 15.7928H117.93L114.542 8.30176L111.158 15.7928H111.039L107.651 8.30176H106.207L110.188 17.1085H112.009L114.542 11.4996L117.078 17.1085H118.9L122.881 8.30176H121.436Z" fill="white"/>
</mask>
<g mask="url(#mask7_536_571)">
<path d="M113.771 0.0059439L101.828 13.1221L115.328 25.4145L127.271 12.2984L113.771 0.0059439Z" fill="#51BA6B"/>
</g>
<mask id="mask8_536_571" style="mask-type:luminance" maskUnits="userSpaceOnUse" x="138" y="8" width="9" height="10">
<path d="M138.087 8.30176V17.1085H139.406V9.61751H143.729C144.594 9.61751 145.3 10.3229 145.3 11.1876C145.3 12.0523 144.594 12.7577 143.729 12.7577H141.04L139.85 14.3583L144.147 17.1085H146.615L141.8 14.0735H143.729C145.32 14.0735 146.615 12.778 146.615 11.1876C146.615 9.59717 145.32 8.30176 143.729 8.30176H138.087Z" fill="white"/>
</mask>
<g mask="url(#mask8_536_571)">
<path d="M141.96 4.0594L133.708 13.1211L142.755 21.3587L151.006 12.297L141.96 4.0594Z" fill="#51BA6B"/>
</g>
<path d="M5.731 14.9037L12.5099 1.81738H4.50341L0 23.1001H6.95181L10.3226 14.9546L5.731 14.9037Z" fill="#242326"/>
<path d="M13.5408 1.81738H13.2796L10.9974 11.9195H16.4944L8.14209 23.1001H10.2412C20.9436 23.1001 23.2258 15.6057 23.2258 10.7632C23.2258 5.64257 20.0788 1.81738 13.5408 1.81738Z" fill="#51BA6B"/>
</svg>
